<svg xmlns="http://www.w3.org/2000/svg" width="687" height="250" xmlns:v="https://vecta.io/nano"><path opacity="0" d="M0 0h687v250H0V0zm434 21l-18 29-26-8-15-3-16-1-1-1h-8l-9 2h-7l-21-9-3 1 22 11-3 1-6 7v8l6 11q15 18 39 28h2l-23-15-14-13-5-10q-1-7 2-10l6-5h4l61 30-54 100 1 1 60-99 62 25h-16l-8 4q-7 5-9 15l-1 1h-11l-4 10 1 2h9l-14 35 1 2h13l14-34 1-3h14l4-10v-2h-13l1-3q4-7 16-5 1-7 5-11 5-1 6 3l-3 6v1h4l1-3 5-3-1-1v-1l-3-8-3 6-68-32 9-16q25 9 44 25l13 15h4l-2-3q-12-15-28-24l-31-15 14-28v-3zm-128 7l2 2h2l-4-2zm-27 68l-6 19 1 1h8l9-18v-2h-12zm-211 5l-5 1-9 5q-7 5-10 14l-15 40 1 5 3 2 6 2h46l4-13H53l-6-2 1-6 12-29q3-5 10-6h37l5-12-44-1zm57 0l-3 4-26 65h15l2-3 26-65-14-1zm251 0l-8 2-5 3q-9 7-13 18l-13 35 1 7q2 3 7 3l14-28 9-22 4-3 7-14-3-1zm24 0l-8 13 7 1 2 4-13 34-7 4h-16l-8 12v1h25l11-4q8-7 12-17l13-35-1-7-5-5-12-1zm101 0l-9 4q-6 6-9 15l-1 1h-11l-4 11 1 1h9l-14 35 1 2h13l14-34 1-3h14l4-10v-2h-13l1-3q4-7 16-5l4-10v-2h-17zm27 2l-3 9 1 1h13l4-9-15-1zm-382 14l-6 13h33l1 2-1 4h-28l-5 2-7 7-7 18 1 4 6 3h41l14-34q3-5 2-14l-2-3-6-2h-36zm59 0v19l1 1v26l-1 2-3 2h-15l-4 12v1h18q8-2 13-7l46-54v-2h-14l-22 28-4 3v-31h-15zm102 0l-10 3-7 8-5 13v5l7 4h20l1 2-1 4-2 1h-30q-5 4-6 12v1h37l7-2 6-6 7-16-1-6-5-3h-24l1-4 3-3h30l5-12-33-1zm217 0l-22 52 1 1h13l21-51v-2h-13zm40 0l-9 2-5 3-7 11-8 20q-3 5-2 14l7 3h35l4-12h-22q-2-2-6-1l-2-1 9-23 4-3h29l4-10v-3h-31zm54 0l-11 4q-7 6-10 15l-9 25 2 6 8 3h37l5-11-29-1q-2-2-6-1l-2-1 2-5 1-2h37l8-20q1-7-1-10l-8-2h-24zM351.5 40h14l1 1 14 1 33.5 9v2.5L404.5 67 343 42.5l1.5-1.5q5.5 1.5 7-1zm264 90h18l1.5 1.5-2 6.5h-22.5l-.5-1.5 3.5-5.5 2-1zm-467 17l20.5.5-4.5 9.5h-21l-1.5-1.5 4.5-7.5 2-1z" stroke="#000"/><path d="M349.5 37l2.5.5-2.5.5v-1zm6 0l2.5.5-2.5.5v-1zm-19 2l2.5 1.5-1.5-.5-1-1zm30 1l2.5.5-2.5.5v-1zm-38 3l-1 2 1-2zm5 2l-1 2 1-2zm-8 1l-1 2 1-2zm84 2l-1 2 1-2zm3 1l-1 2 1-2zm8 3l-1 2 1-2zm7 3l-1 2 1-2zm2 1l-1 2 1-2zm12 6l-1 2 1-2zm2 1l-1 2 1-2zm-117 1l1 2-1-2zm3 4l1 2-1-2zm9 6l3 4-3-4zm-2 1l5 6-5-6zm125 2l1 2-1-2zm5 1l1 2-1-2zm-122 4l1 2-1-2zm129 7l1 2-1-2zm-111 3l-1 2 1-2zm2 1l-1 2 1-2zm2 1l-1 2 1-2zm9 7l3.5.5-3.5.5v-1zm24 0l-1 2 1-2zm80 3l1.5.5-2 .5-.5 2-.5-1.5 1.5-1.5zm-34 1l-2 3 2-3zm46 0l-.5 1.5q-.7 2.3 1.5 1.5l2.5 1.5-1.5.5-3.5-1 1.5-4zm-129 1l-5 6 5-6zm55 2l.5 5.5h-1l.5-5.5zm-23 1l-1 2 1-2zm-39 5l-1 2 1-2zm99 0l-2 3 2-3zm46 0l-2 3 2-3zm-101 1l1.5 2.5h-1l-.5-2.5zm124 2h13l.5 1.5-1.5-.5h-12l-.5 1.5h-1l1.5-2.5zm40 0l31.5.5-31.5.5v-1zm54 0l24.5.5-24.5.5v-1zm-217 3l.5 2.5h-1l.5-2.5zm206 1l-3 4 3-4zm-57 1l-1 2 1-2zm60 15l1 1 22.5.5-22.5.5-1-2zm-58 20l4.5.5-4.5.5v-1zm55 0l3.5.5-3.5.5v-1zm-269 1l.5 4.5h-1l.5-4.5zm23 5l-1 2 1-2zm-22 2l2 3-2-3zm20 1l-1 2 1-2zm175 0l1 2-1-2zm57 0l1 2-1-2z" fill="#4d4e4f" stroke="#4d4e4f"/><path d="M436.5 16l-.5 1.5-25 52 77 37-1.5.5-79-31-62 102 .5-1.5 55-103-98-46 1.5-.5 100 40 3.5-3.5L436.5 16zM279 96h11.5l.5 1.5-9.5 18.5h-8l-.5-1.5 6-18.5zm-211.5 5l44.5.5-5 12.5H69.5q-6.6.9-9.5 5.5l-12 29-1 6 5.5 2.5H89l-4 13H38.5l-6-2-2.5-2.5-1-5 15-40q3.2-8.3 9.5-13.5l9-5 5-1zm57 0l14.5.5-26 65-2.5 3.5-14.5-.5 26-65 2.5-3.5zm21 16h36l6 2 2.5 2.5q1 9-2 14L174 170h-41.5l-5.5-3.5-1-4 7-18 6.5-6.5 5-2H173l1-4.5-1.5-1.5H140l5.5-13zm3.5 30l-2 1-5 8 2 1h21l4-9-20-1zm56-30h15v30.5l4-3 21.5-27.5h14l.5 1.5-46.5 54.5q-4.8 5.2-13 7h-18l.5-1.5 4-11.5h14.5l3.5-2.5 1-2v-26l-1-1V117zm101.5 0l33.5.5-5 12.5h-30.5l-2.5 2.5-1 4.5h23.5l5.5 2.5 1 6-7 16-6.5 6.5-7 2h-37l.5-1.5q.9-7.6 5.5-11.5h30l2.5-1 1-4.5-1.5-1.5h-20l-6.5-4.5v-5l5-13 6.5-7.5 10-3z" fill="#168cf9" stroke="#168cf9"/><path d="M352.5 37q4.7 2.3 13 1l23 4 25.5 8.5-1.5.5-14-5-17-4-12-1-1-1h-19l-7 2-4.5-2.5 14.5-2.5zm-22 5l5.5 1.5-6 5q-3.2 3.3-2 11l4 8 9.5 10.5q12.2 10.8 27.5 18.5l-1.5.5Q346 87 331 70.5q-7.1-6.3-8-19l3-6.5 4.5-3zm90 11q34.7 12.3 57.5 36.5l2 4.5h-4v-1.5L461.5 77l-19-13-22-10v-1zm61 43q3 2 2.5 7.5l-1.5-.5q-4.2 1.3-2.5-3.5l1.5-3.5zm-81 5l10 1 5.5 3.5q2.5 3.5 1 11l-12 31q-3.9 10.6-11.5 17.5l-5 3-8 2H357l7-13h17.5l7.5-5.5 12-29v-6q-2.5-3.5-9-3l8.5-12.5zm55 0l16.5.5-5.5 11.5q-10.7-1.7-14.5 3.5l-1 4.5 13 .5-5.5 11.5h-13l-1.5 1.5-12 32-2.5 3.5h-12l-.5-1.5 14-35.5h-9.5l-.5-1.5 4-10.5h10.5l1.5-1.5q3.1-9.9 10.5-15.5l8-3zm46 0l16.5.5-5.5 11.5q-10.7-1.7-14.5 3.5l-1 4.5 13 .5-5.5 11.5h-13l-.5 1.5-14 35.5-14-.5 15-36-11-1 5.5-11.5h10l.5-1.5 6.5-11.5 3 1v-1q-2.2.8-1.5-1.5l2.5-2.5 8-3zm-130 1l6.5.5-6 12-5 5-10 25-13.5 24.5-5.5-4.5 1-12 12-30q4.5-11 13.5-17.5l7-3zm157.5 1h12.5l.5 1.5-3 8.5-14-.5 4-9.5zm-50 2q4.1-1.7 3 2.5l-3.5 4.5-2.5-1.5 3-5.5zm44 13h12.5l.5 1.5-20 50.5h-12.5l-.5-2.5 20-49.5zm34.5 0l37.5.5-5.5 11.5h-28l-4.5 3.5-7 16-1 7.5 2.5 1 27.5.5-5.5 11.5h-33l-4-1-3.5-3.5 1-9 9-23q2.5-8 8.5-12.5l6-3zm56 0h33l4.5 3.5v6l-8 21.5h-37.5l-1.5 1.5-1 6.5 3.5 1H639l-4 12h-36.5l-6-2-2.5-2.5-1-8 13-31 6.5-6.5 5-2zm1.5 12l-6 8 2 1h22l2-7-1-2h-19z" fill="#2b2b2b" stroke="#2b2b2b"/></svg>